<svg width="65" height="64" viewBox="0 0 65 64" fill="none" xmlns="http://www.w3.org/2000/svg">
<mask id="mask0_271:1350" style="mask-type:alpha" maskUnits="userSpaceOnUse" x="0" y="0" width="64" height="64">
<path d="M60.0734 32.9039C59.7798 32.3316 59.7795 31.6529 60.0724 31.0803L63.1697 25.0264C63.6373 24.1124 63.3369 22.9928 62.4746 22.4356L56.7627 18.745C56.2225 18.396 55.8831 17.8084 55.8506 17.1661L55.5075 10.3749C55.4557 9.34928 54.6355 8.52958 53.6098 8.47834L46.8188 8.13908C46.1764 8.10698 45.5887 7.76789 45.2393 7.22783L41.5462 1.51847C40.9884 0.65623 39.8683 0.356506 38.9545 0.824984L32.9041 3.92676C32.3317 4.22019 31.6531 4.22043 31.0805 3.9274L25.0269 0.829352C24.1127 0.361514 22.9928 0.662031 22.4357 1.52467L18.7464 7.23691C18.3974 7.7773 17.8098 8.11682 17.1673 8.14929L10.3772 8.49243C9.35186 8.54425 8.53225 9.3641 8.48074 10.3895L8.13947 17.1828C8.10721 17.825 7.76815 18.4125 7.22826 18.7618L1.5186 22.4551C0.656352 23.0129 0.356629 24.133 0.825106 25.0468L3.92696 31.0974C4.22035 31.6697 4.22063 32.3481 3.92771 32.9207L0.831756 38.972C0.364143 39.886 0.664533 41.0056 1.52686 41.5628L7.23872 45.2534C7.77893 45.6025 8.11831 46.19 8.15077 46.8323L8.49392 53.6235C8.54574 54.6492 9.36592 55.4689 10.3915 55.5201L17.1825 55.8594C17.8249 55.8914 18.4127 56.2306 18.762 56.7707L22.4553 62.4811C23.013 63.3435 24.1332 63.6433 25.047 63.1748L31.0975 60.073C31.6698 59.7796 32.3482 59.7793 32.9208 60.0722L38.9746 63.1694C39.8887 63.6371 41.0085 63.3365 41.5656 62.474L45.2549 56.7615C45.6039 56.2211 46.1916 55.8816 46.8341 55.8491L53.6241 55.506C54.6496 55.4542 55.4692 54.6343 55.5207 53.6089L55.8619 46.817C55.8942 46.1748 56.2333 45.5873 56.7731 45.238L62.4825 41.5449C63.3449 40.987 63.6446 39.8667 63.1758 38.9528L60.0734 32.9039Z" fill="black"/>
</mask>
<g mask="url(#mask0_271:1350)">
<path d="M-12 0H84V64H-12V0Z" fill="#ECEFF1"/>
<path d="M-12 25.6001H84V38.4001H-12V25.6001Z" fill="#2196F3"/>
<path d="M18.5391 0H31.63V64H18.5391V0Z" fill="#2196F3"/>
</g>
</svg>
