<svg width="12" height="12" viewBox="0 0 12 12" fill="none" xmlns="http://www.w3.org/2000/svg">
<path d="M5.07435 0.789742C5.47533 0.0593441 6.52467 0.0593436 6.92565 0.789742L8.07192 2.87773C8.22358 3.15399 8.49071 3.34807 8.80031 3.40694L11.1403 3.85188C11.9589 4.00753 12.2832 5.00552 11.7124 5.61257L10.0808 7.34797C9.86496 7.57758 9.76292 7.8916 9.80261 8.20425L10.1025 10.5672C10.2075 11.3938 9.35853 12.0106 8.60481 11.6554L6.45017 10.6399C6.1651 10.5056 5.83491 10.5056 5.54983 10.6399L3.39519 11.6554C2.64147 12.0106 1.79253 11.3938 1.89745 10.5672L2.19739 8.20425C2.23708 7.8916 2.13504 7.57757 1.91917 7.34797L0.287588 5.61257C-0.283153 5.00552 0.0411134 4.00753 0.859671 3.85188L3.19968 3.40694C3.50929 3.34807 3.77642 3.15399 3.92808 2.87773L5.07435 0.789742Z" fill="#DEDEDE"/>
</svg>
