<svg width="177" height="48" viewBox="0 0 177 48" fill="none" xmlns="http://www.w3.org/2000/svg">
<rect width="177" height="48" rx="6" fill="white"/>
<path d="M25.7947 19.9383C25.495 19.5734 25.1235 19.2931 24.6804 19.0976C24.2502 18.9021 23.7485 18.8044 23.175 18.8044C22.6015 18.8044 22.0671 18.9152 21.5718 19.1367C21.0896 19.3583 20.666 19.6711 20.3011 20.0752C19.9492 20.4662 19.6689 20.9354 19.4604 21.4828C19.2649 22.0302 19.1672 22.6232 19.1672 23.2619C19.1672 23.9135 19.2649 24.5131 19.4604 25.0605C19.6689 25.5949 19.9492 26.0641 20.3011 26.4681C20.653 26.8591 21.0635 27.1654 21.5327 27.387C22.015 27.6086 22.5298 27.7193 23.0772 27.7193C23.7028 27.7193 24.2568 27.589 24.739 27.3283C25.2212 27.0677 25.6188 26.7027 25.9316 26.2335L28.4731 28.1299C27.8866 28.951 27.1437 29.5571 26.2444 29.9481C25.3451 30.3391 24.4197 30.5346 23.4682 30.5346C22.3864 30.5346 21.3894 30.3652 20.477 30.0263C19.5647 29.6874 18.7761 29.2052 18.1114 28.5796C17.4467 27.9409 16.9254 27.1719 16.5474 26.2726C16.1825 25.3733 16 24.3697 16 23.2619C16 22.154 16.1825 21.1504 16.5474 20.2511C16.9254 19.3518 17.4467 18.5893 18.1114 17.9637C18.7761 17.3251 19.5647 16.8363 20.477 16.4974C21.3894 16.1586 22.3864 15.9891 23.4682 15.9891C23.8592 15.9891 24.2633 16.0282 24.6804 16.1064C25.1105 16.1716 25.5275 16.2824 25.9316 16.4388C26.3486 16.5952 26.7462 16.8037 27.1241 17.0644C27.5021 17.3251 27.841 17.6444 28.1408 18.0224L25.7947 19.9383Z" fill="#163E8F"/>
<path d="M34.6817 16.341H37.2037L43.2252 30.1827H39.7844L38.5918 27.2501H33.2155L32.062 30.1827H28.6993L34.6817 16.341ZM35.8547 20.3684L34.1734 24.6695H37.5556L35.8547 20.3684Z" fill="#163E8F"/>
<path d="M51.46 19.7233C51.2124 19.4104 50.8735 19.1824 50.4434 19.039C50.0264 18.8826 49.6288 18.8044 49.2509 18.8044C49.0293 18.8044 48.8012 18.8305 48.5666 18.8826C48.332 18.9347 48.1104 19.0194 47.9019 19.1367C47.6933 19.241 47.5239 19.3844 47.3936 19.5668C47.2632 19.7493 47.1981 19.9709 47.1981 20.2316C47.1981 20.6486 47.3545 20.968 47.6673 21.1895C47.9801 21.4111 48.3711 21.6001 48.8403 21.7565C49.3225 21.9129 49.8374 22.0693 50.3848 22.2257C50.9322 22.3821 51.4405 22.6037 51.9097 22.8904C52.3919 23.1771 52.7895 23.5616 53.1023 24.0439C53.4151 24.5261 53.5715 25.1713 53.5715 25.9794C53.5715 26.7483 53.4281 27.4196 53.1414 27.993C52.8546 28.5665 52.4636 29.0422 51.9684 29.4202C51.4861 29.7982 50.9192 30.0784 50.2675 30.2609C49.6288 30.4434 48.9511 30.5346 48.2342 30.5346C47.3349 30.5346 46.5008 30.3977 45.7318 30.124C44.9628 29.8503 44.246 29.4072 43.5813 28.7946L45.7513 26.4095C46.0641 26.8265 46.4552 27.1524 46.9244 27.387C47.4066 27.6086 47.9019 27.7193 48.4102 27.7193C48.6578 27.7193 48.9055 27.6933 49.1531 27.6411C49.4138 27.576 49.6419 27.4847 49.8374 27.3674C50.0459 27.2501 50.2088 27.1002 50.3261 26.9178C50.4565 26.7353 50.5216 26.5203 50.5216 26.2726C50.5216 25.8555 50.3587 25.5297 50.0329 25.2951C49.7201 25.0475 49.3225 24.8389 48.8403 24.6695C48.3581 24.5001 47.8367 24.3306 47.2763 24.1612C46.7158 23.9917 46.1945 23.7637 45.7122 23.4769C45.23 23.1902 44.826 22.8122 44.5001 22.343C44.1873 21.8738 44.0309 21.2547 44.0309 20.4857C44.0309 19.7428 44.1743 19.0911 44.461 18.5307C44.7608 17.9702 45.1518 17.501 45.634 17.1231C46.1293 16.7451 46.6963 16.4649 47.3349 16.2824C47.9736 16.0869 48.6318 15.9891 49.3095 15.9891C50.0915 15.9891 50.8475 16.0999 51.5773 16.3215C52.3072 16.5431 52.9654 16.9145 53.5519 17.4359L51.46 19.7233Z" fill="#163E8F"/>
<path d="M55.8045 16.341H58.8544V30.1827H55.8045V16.341Z" fill="#163E8F"/>
<path d="M61.6285 16.341H65.7732L71.6578 25.9598H71.6969V16.341H74.7468V30.1827H70.7585L64.7175 20.3293H64.6784V30.1827H61.6285V16.341Z" fill="#163E8F"/>
<path d="M113.82 29.2052C112.921 29.6744 111.982 30.0132 111.005 30.2218C110.027 30.4303 109.03 30.5346 108.014 30.5346C106.932 30.5346 105.935 30.3652 105.022 30.0263C104.11 29.6874 103.322 29.2052 102.657 28.5796C101.992 27.9409 101.471 27.1719 101.093 26.2726C100.728 25.3733 100.545 24.3697 100.545 23.2619C100.545 22.154 100.728 21.1504 101.093 20.2511C101.471 19.3518 101.992 18.5893 102.657 17.9637C103.322 17.3251 104.11 16.8363 105.022 16.4974C105.935 16.1586 106.932 15.9891 108.014 15.9891C109.121 15.9891 110.138 16.126 111.063 16.3997C112.002 16.6604 112.823 17.1165 113.527 17.7682L111.376 20.1143C110.959 19.6842 110.49 19.3583 109.969 19.1367C109.447 18.9152 108.796 18.8044 108.014 18.8044C107.362 18.8044 106.769 18.9152 106.235 19.1367C105.713 19.3583 105.264 19.6711 104.886 20.0752C104.508 20.4662 104.214 20.9354 104.006 21.4828C103.81 22.0302 103.713 22.6232 103.713 23.2619C103.713 23.9135 103.81 24.5131 104.006 25.0605C104.214 25.5949 104.508 26.0641 104.886 26.4681C105.264 26.8591 105.713 27.1654 106.235 27.387C106.769 27.6086 107.362 27.7193 108.014 27.7193C108.678 27.7193 109.252 27.6477 109.734 27.5043C110.216 27.3479 110.601 27.1915 110.888 27.0351V24.7868H108.405V21.9715H113.82V29.2052Z" fill="#163E8F"/>
<path d="M128.176 24.8454C128.176 25.6666 128.052 26.4225 127.805 27.1133C127.557 27.8041 127.186 28.4036 126.69 28.9119C126.208 29.4202 125.602 29.8177 124.872 30.1045C124.142 30.3912 123.302 30.5346 122.35 30.5346C121.386 30.5346 120.539 30.3912 119.809 30.1045C119.079 29.8177 118.466 29.4202 117.971 28.9119C117.489 28.4036 117.124 27.8041 116.876 27.1133C116.629 26.4225 116.505 25.6666 116.505 24.8454V16.341H119.555V24.7281C119.555 25.1582 119.62 25.5558 119.75 25.9207C119.893 26.2856 120.089 26.605 120.337 26.8787C120.584 27.1393 120.878 27.3479 121.216 27.5043C121.568 27.6477 121.946 27.7193 122.35 27.7193C122.754 27.7193 123.126 27.6477 123.465 27.5043C123.804 27.3479 124.097 27.1393 124.344 26.8787C124.592 26.605 124.781 26.2856 124.911 25.9207C125.055 25.5558 125.126 25.1582 125.126 24.7281V16.341H128.176V24.8454Z" fill="#163E8F"/>
<path d="M130.957 16.341H134.006V30.1827H130.957V16.341Z" fill="#163E8F"/>
<path d="M136.781 16.341H141.355C142.463 16.341 143.512 16.4649 144.503 16.7125C145.507 16.9601 146.38 17.3642 147.123 17.9246C147.866 18.472 148.452 19.1889 148.882 20.0752C149.325 20.9614 149.547 22.0367 149.547 23.301C149.547 24.4219 149.332 25.4124 148.902 26.2726C148.485 27.1198 147.918 27.8366 147.201 28.4232C146.484 28.9966 145.656 29.4333 144.718 29.733C143.78 30.0328 142.796 30.1827 141.766 30.1827H136.781V16.341ZM139.83 27.3674H141.414C142.118 27.3674 142.77 27.2958 143.369 27.1524C143.982 27.009 144.51 26.7744 144.953 26.4486C145.396 26.1097 145.741 25.6731 145.989 25.1387C146.249 24.5913 146.38 23.9266 146.38 23.1446C146.38 22.4668 146.249 21.8803 145.989 21.385C145.741 20.8767 145.402 20.4596 144.972 20.1338C144.542 19.808 144.034 19.5668 143.447 19.4104C142.874 19.241 142.268 19.1563 141.629 19.1563H139.83V27.3674Z" fill="#163E8F"/>
<path d="M151.732 16.341H161.136V19.1563H154.782V21.7369H160.784V24.5522H154.782V27.3674H161.488V30.1827H151.732V16.341Z" fill="#163E8F"/>
<circle cx="87.8182" cy="23" r="8.5" stroke="#1B67FF" stroke-width="3"/>
<path d="M86.3756 21.9407L89.063 18.8828C89.7846 18.0617 91.1117 18.8279 90.7614 19.8634L89.4569 23.7196C89.4146 23.8447 89.3479 23.9602 89.2608 24.0593L86.5734 27.1172C85.8518 27.9383 84.5247 27.1721 84.875 26.1366L86.1795 22.2804C86.2218 22.1553 86.2885 22.0399 86.3756 21.9407Z" fill="#1B67FF"/>
</svg>
