<svg width="12" height="13" viewBox="0 0 12 13" fill="none" xmlns="http://www.w3.org/2000/svg">
<path d="M5.07435 1.28978C5.47533 0.559378 6.52467 0.559378 6.92565 1.28978L8.07192 3.37776C8.22358 3.65403 8.49071 3.84811 8.80031 3.90698L11.1403 4.35192C11.9589 4.50756 12.2832 5.50555 11.7124 6.11261L10.0808 7.848C9.86496 8.07761 9.76292 8.39164 9.80261 8.70428L10.1025 11.0673C10.2075 11.8939 9.35853 12.5106 8.60481 12.1554L6.45017 11.14C6.1651 11.0056 5.83491 11.0056 5.54983 11.14L3.39519 12.1554C2.64147 12.5106 1.79253 11.8939 1.89745 11.0673L2.19739 8.70428C2.23708 8.39164 2.13504 8.07761 1.91917 7.848L0.287588 6.11261C-0.283153 5.50555 0.0411134 4.50756 0.859671 4.35192L3.19968 3.90698C3.50929 3.84811 3.77642 3.65403 3.92808 3.37777L5.07435 1.28978Z" fill="white"/>
</svg>
